# File generated by ImageToStl.com - Free Image and 3D model conversion tools

mtllib horse.mtl

# Plane_0
o obj1
v 11.43162155 17.92760277 -21.21716499
v 31.77396393 22.025383 -25.60761642
v 31.82641029 11.30181694 -32.50795746
v 9.29925728 7.81211996 -27.87543869
v -14.25578785 -31.73454666 -12.64874744
v -14.73221302 -21.96784973 -17.01817131
v 6.38570261 -26.51627731 -23.60571098
v 7.05723095 -36.88261795 -19.15520668
v -37.37174225 -24.11469269 -7.12361431
v -38.15636826 -14.57309914 -11.66350746
v -50.81533051 -24.22368622 -5.11144638
v -49.88265228 -11.74608326 -7.10851574
v -66.5165863 -31.8997612 -6.37173223
v -64.43757629 -15.80401516 -2.95293283
v -77.01493835 -34.24116516 -2.82016301
v -83.07917023 -19.65801048 2.36097193
v 48.47575378 37.84101486 -31.28885651
v 52.5890274 25.23118019 -39.55136108
v 42.06039429 18.69075966 -36.52261353
v 39.9629097 30.57426834 -28.82751465
v 64.73297119 47.59397507 -30.76904678
v 66.52548218 40.25268555 -38.40622711
v 92.92113495 60.95933914 -42.55419159
v 92.19845581 56.19425201 -46.39082336
v 116.65013123 67.1352005 -44.14763641
v 113.68605804 61.23920059 -45.34455109
v 127.37604523 63.64013672 -49.2442627
v 124.20302582 56.90602493 -48.30147171
v 132.90841675 51.82247925 -48.16160965
v 131.24610901 43.47852325 -50.21536255
v 137.97462463 32.76335144 -49.09248734
v 135.54165649 29.51492691 -51.34625244
v 142.91723633 23.27068901 -50.43516159
v 140.4446106 22.27393913 -52.69186401
v 145.40507507 20.14949989 -52.57966614
v 144.72561646 18.19294167 -52.34393311
v 143.03663635 16.54460526 -52.09337997
v 142.22134399 14.6180706 -51.85258484
v 137.95288086 14.21885204 -51.93406296
v 140.13510132 18.26722145 -52.57878113
v 133.12924194 16.95649147 -50.5825882
v 135.86526489 24.48154449 -53.05292511
v 127.81804657 28.64329529 -53.23992538
v 129.45370483 35.28294373 -51.79864883
v 116.03567505 39.95039368 -50.046875
v 117.53249359 47.71724701 -49.65218353
v 107.17124939 45.95978165 -47.56942368
v 108.15184021 52.89540863 -45.84233475
v 95.41883087 39.63319778 -48.15789032
v 92.9777832 47.89527512 -48.15707397
v 69.90072632 11.81005955 -41.98607635
v 68.16143799 26.03022766 -40.37823486
v 62.16518402 -13.75990105 -38.88981247
v 56.54576874 5.73841333 -42.14868927
v 44.87378311 -17.73279572 -37.10030746
v 44.00063705 -0.04299339 -38.5525322
v -83.24878693 1.25089777 0.63306969
v -82.98282623 9.22650051 4.64387274
v -77.52410126 8.80209732 -2.52776217
v -77.73718262 -5.55415583 -3.97425342
v -63.49665451 16.31604195 -6.5554471
v -64.79798126 0.23756492 -7.68229437
v -48.94195557 20.38428879 -10.71103096
v -50.24317932 4.30145407 -11.83787727
v -34.97425842 18.45871162 -14.5592556
v -37.40376282 3.12635612 -17.96791458
v -11.55187321 10.76761818 -21.26000786
v -13.9729023 -5.61865664 -25.04949188
v 6.98681307 -9.3710804 -31.73841286
v 31.75535583 -5.97668457 -33.90686798
v 33.27359009 -23.21217728 -29.70424271
v -9.28781605 20.29127884 -14.78764725
v -33.27062225 27.73246384 -9.15996647
v -47.79765701 29.60239601 -3.91901207
v -62.35229874 25.5317173 0.23657419
v -77.46800232 16.2955513 4.58390713
v -81.3190155 11.93256855 14.06462002
v 35.97369003 -34.14565277 -26.15166664
v 64.90119171 -31.50582314 -37.27679443
v 47.81718063 -36.44811249 -35.59523392
v 73.51454926 -2.36847878 -36.98770142
v 96.61764526 31.34352875 -44.35505676
v 106.84979248 34.38158798 -43.23549652
v 114.88793182 27.53408623 -45.47320175
v 125.16765594 21.20485687 -48.35023117
v 131.04504395 14.70167446 -49.09300995
v 134.16435242 13.36582947 -50.31020737
v 139.53515625 11.9063673 -51.22109604
v -84.34803772 -8.35428047 4.94091749
v 41.28332138 -30.88933182 -31.71750641
v 45.37644958 -39.66532516 -19.92546082
v 36.9590416 -40.41227722 -17.91469955
v -36.28175354 -31.03523827 1.99050081
v -46.70417023 -27.75005341 7.49828291
v -80.28725433 9.40053368 27.13536835
v -80.972435 8.44663429 29.17811203
v -76.95722198 13.39628696 32.63662338
v -75.96589661 15.47667408 27.88434029
v -43.2247467 36.54371643 5.60865545
v -28.39475822 35.07894516 1.03472614
v 127.92507172 65.24742889 -47.37777328
v 128.421875 66.70187378 -45.68878174
v 133.95423889 54.88420868 -44.60613251
v 146.30484009 16.00897598 -50.44372177
v 145.14811707 13.8275919 -50.10174561
v 126.28144073 21.21005058 -44.79478073
v 116.00171661 27.53927612 -41.91775131
v 53.04866409 44.78233719 -21.76118851
v 69.30551147 54.55201721 -21.24138069
v -58.34857941 -39.38305664 10.76126575
v -47.4058342 -33.37158966 1.65317786
v -61.25922394 -31.8025589 11.65386868
v 8.11814785 -43.629776 -10.2866087
v 77.52720642 -2.29891157 -23.21609116
v 70.74948883 -33.31641388 -25.56007004
v -57.77938461 32.47304153 9.76424026
v 139.02043152 35.82508087 -45.53700638
v 133.14511108 11.53578568 -47.75199509
v 16.15950966 25.07618904 -11.348279
v 36.1211586 28.66483879 -16.57692146
v 95.83506775 64.57175446 -29.43171501
v -82.19464111 -12.1703558 19.90607834
v -84.6631012 -12.21315193 11.43424416
v -79.06650543 -19.58844185 16.1325779
v -69.30723572 -39.29424286 13.87026501
v -71.51738739 -34.13861847 16.18446922
v 100.6302948 31.41309547 -30.58345032
v 143.99139404 11.64620686 -49.75977707
v -72.8950882 23.23687553 14.11157703
v 143.96304321 26.33242035 -46.87968063
v -13.22563267 -38.28608322 -4.03728247
v 147.46156311 18.19036102 -50.78568268
v -77.76945496 -12.06007004 35.72869873
v -80.1184082 -12.12425137 27.22309303
v -75.69143677 -19.51349449 28.0269413
v -71.87303162 -19.40916252 41.85345078
v 136.88444519 10.17567921 -47.73389053
v -4.71490479 27.23260307 -5.25998116
v 117.07862854 70.19692993 -42.49211502
v 116.56629944 68.69706726 -44.2338562
v 143.04931641 10.90311527 -47.13750076
v 107.9635849 34.38677979 -39.68004608
v -79.34096527 15.40172672 15.98998451
v -84.7674408 0.64931166 10.37129498
v -84.60383606 5.55563688 12.8386097
v 44.53582001 37.51559067 -19.29985046
v 118.25110626 27.56968117 -33.72790146
v 110.21296692 34.41718674 -31.49019814
v 46.15442276 37.53198624 -13.3329792
v 54.66726303 44.79873657 -15.79431915
v 119.32801056 70.22733307 -34.30226898
v 130.67124939 66.73227692 -37.49893188
v -26.68167877 35.09630585 7.34988022
v -3.09630251 27.24899864 0.70688862
v 145.08403015 9.49522972 -41.22795868
v 139.13381958 10.20608521 -39.54404449
v -79.82497406 4.55919743 34.03161621
v -78.34593964 -0.40610275 35.58574295
v -72.81015778 -0.46475828 41.62106323
v -75.21442413 7.60671186 39.0947113
v -11.10250187 -38.25847626 3.39144611
v -34.03469467 -31.00602722 9.85284233
v 146.35549927 24.59175491 -43.25627899
v 147.86274719 26.39955521 -42.12294388
v 147.55012512 19.3286438 -43.56203842
v -90.44104004 5.93365002 23.75416374
v -88.6608963 16.08129311 23.18510246
v -71.73155975 23.24866104 18.40084457
v -78.17743683 15.41351509 20.27925873
v 101.0422821 31.40269852 -28.86898422
v 146.24075317 11.67661285 -41.56992722
v -70.59417725 -27.68971062 20.20583153
v -77.48290253 -15.1099205 22.08126831
v 96.24703217 64.56136322 -27.71725655
v 17.82644081 25.0930748 -5.20324469
v 132.94412231 9.9316473 -37.78595734
v -81.64772034 9.36168098 22.45697594
v -81.36776733 9.36451626 23.48897934
v -77.7223587 15.4181242 21.95685577
v 149.71095276 18.22076607 -42.59584045
v 148.55419922 16.03938103 -42.2538681
v 10.30467319 -43.60135269 -2.63606453
v 140.86700439 35.85687256 -43.2845993
v 142.92012024 35.89221954 -40.78026962
v -71.27648926 23.2532711 20.07844353
v -56.16078949 32.48944092 15.73110962
v 147.39749146 13.85799599 -41.91189957
v 77.78179169 -2.31280279 -22.0562973
v -59.68815231 -31.78721619 17.13702774
v -81.06398773 9.37464237 24.51416779
v -77.22853088 15.43458557 23.62337494
v 69.56009674 54.53775024 -20.08157921
v 37.66936874 28.68052101 -10.86954021
v 128.5308075 21.24045372 -36.60492706
v 136.58001709 52.91164398 -42.16934204
v 139.13241577 50.9942131 -39.80065536
v -41.60614014 36.56011963 11.57552624
v 71.97815704 -24.41054344 -20.27025223
v 38.98984146 -40.38587952 -10.8090353
v -45.13306046 -27.73653793 12.9814415
v 137.89553833 53.29486084 -39.46417999
v 47.30746841 -39.64329529 -13.17387199
v -55.7396698 -52.27297592 6.3471303
v -58.901577 -52.32949829 -4.77289438
v -50.00939178 -34.03329086 -5.6290493
v -75.03221893 -52.74184799 -0.19316755
v -71.87031555 -52.68532562 10.92685604
v -74.39612579 -39.38520813 -4.02672195
v -63.43746185 -39.47402954 -7.13572407
v -73.10923004 -66.54898071 11.25587273
v -63.78757858 -66.08145142 8.60787392
v -65.06130981 -52.74051285 8.99512672
v -76.27112579 -66.6055069 0.13584504
v -83.08013153 -66.55032349 2.06757689
v -68.22322083 -52.79704285 -2.12489939
v -71.75959015 -77.27114868 1.46652472
v -77.01299286 -77.53463745 2.95885825
v -66.94947815 -66.13796997 -2.51215148
v -69.97763062 -77.23928833 7.73344946
v -79.91822052 -66.49380493 13.18759918
v -72.28133392 -114.3034668 8.37008095
v -67.02792358 -114.03997803 6.87774515
v -75.23104095 -77.50278473 9.22578239
v -74.06328583 -114.33533478 2.10315633
v -77.9006424 -114.30422974 3.19182277
v -80.8503418 -77.50354004 4.04752493
v -79.06838989 -77.47167969 10.31444931
v -68.04225922 -122.73765564 6.27549982
v -65.22425079 -122.76049805 5.47602272
v -76.11867523 -114.27237701 9.458745
v -62.67494583 -122.5904007 -0.22208455
v -66.53285217 -122.78388977 0.87383074
v -68.80987549 -114.07184601 0.61082131
v -70.9573288 -130.37924194 -0.98000085
v -68.03007507 -130.32687378 9.31478882
v -69.35086823 -122.76104736 1.67330873
v -61.72637939 -130.37796021 7.52641392
v -53.09649658 -129.94514465 5.0749259
v -61.36634827 -122.56700134 4.38010931
v -64.65364075 -130.43031311 -2.76837301
v -56.02374649 -129.99749756 -5.21986389
v 53.66274643 -37.40861893 -22.29094887
v 55.59375381 -37.38630295 -15.53935814
v 40.38780212 32.95711136 -17.88591003
v 41.95396805 32.97298431 -12.11235809
v 35.9830513 26.24067307 -27.04333305
v 60.69362259 -44.09185028 -26.98898697
v 57.59769821 -43.31765366 -36.58298111
v 40.43079376 -20.47947311 -31.98897171
v 37.92047119 -2.72646761 -35.96580887
v 37.01785278 15.07057953 -34.27616882
v 43.40120697 -48.27946854 -22.05581856
v 49.16735458 -46.97384644 -23.70021057
v 45.98848343 -65.47343445 -25.99172592
v 48.76502228 -64.84329224 -26.78355026
v 47.20529175 -64.87138367 -32.26239777
v 44.42874908 -65.50152588 -31.47057343
v 40.15776062 -48.14315033 -33.43380356
v 43.19511795 -45.83115387 -37.45225525
v 53.19936371 -109.60021973 -32.04525757
v 47.50294113 -111.68679047 -32.24560165
v 52.90171432 -62.78480148 -32.06205368
v 44.72639847 -112.31694031 -31.45377922
v 46.286129 -112.28885651 -25.97492981
v 54.31811142 -63.58298492 -28.36720085
v 51.49278641 -124.324646 -27.44924355
v 54.26933289 -123.69450378 -28.24106789
v 49.06267548 -111.65870667 -26.76675415
v 52.70960236 -123.72258759 -33.7199173
v 49.93305969 -124.35273743 -32.92809296
v 54.61575317 -110.39839935 -28.35040092
v 72.5483017 -130.44468689 -31.79111862
v 70.26663208 -129.66070557 -38.53420258
v 58.40602112 -121.63600922 -33.51957321
v 59.82241821 -122.43418884 -29.82471848
v 61.27478027 -130.41009521 -37.80788422
v 63.6997757 -130.36781311 -29.28079987
v 56.85050964 -130.37167358 -36.55272675
v 59.27553177 -130.32936096 -28.02564812
v -101.39266205 -8.25864124 28.82257652
v -101.91732788 -8.24952412 26.9635582
v -89.96346283 5.92931318 25.49010277
v -88.18333435 16.0769558 24.92104149
v -115.81465149 -23.04322243 30.85516167
v -115.24602509 -23.05139542 32.84672928
v -105.68928528 1.05047154 29.9831028
v -106.21395111 1.05958879 28.12408257
v -120.78054047 -59.69757843 32.25391769
v -120.15380859 -59.70450211 34.47028732
v -109.12600708 -30.67915344 29.00535393
v -108.55736542 -30.68732834 30.99691582
v -121.50260162 -80.01335907 34.98097992
v -121.85190582 -80.0194931 33.74925613
v -116.21941376 -68.87006378 31.01748276
v -115.59268188 -68.8769989 33.23384857
v -122.20640564 -79.30661774 33.84534836
v -121.85707092 -79.3004837 35.07706833
v 122.87006378 79.67897797 -55.05348587
v 122.27927399 80.31127167 -54.35254669
v 122.50978088 80.98609161 -53.56890106
v 123.10726929 80.37342834 -54.24703979
v 123.03849792 71.5120163 -52.35699463
v 116.70176697 73.44847107 -51.0393219
v 117.08376312 74.56680298 -49.74062729
v 123.43161011 72.66288757 -51.02053833
v 147.28128052 17.81195259 -48.59922409
v 21.0955658 19.00708771 11.5174799
v 22.53465271 8.10602951 22.2662487
v 44.11916733 11.57479286 10.81397629
v 40.69171906 23.08829498 4.49732924
v -5.38315058 -31.53752136 18.62005424
v 11.77597141 -37.77482224 11.95592594
v 17.9264431 -26.26000023 17.0659771
v -3.52607822 -21.71900177 22.4743042
v -27.9812088 -23.90616226 25.97033691
v -26.29613304 -14.30972672 30.1341362
v -40.47776794 -23.99412918 31.32002258
v -38.67651367 -11.49723721 32.38396072
v -53.15180588 -31.60298538 40.72821045
v -53.2314415 -15.5551672 36.53954697
v -63.94314575 -33.95088959 43.24723053
v 57.8359375 38.91374969 0.37526545
v 49.32308578 31.64700317 2.83660388
v 54.91205597 18.9761467 8.76898193
v 65.44068146 25.51656342 5.74023438
v 71.36510468 48.60613251 -8.71906662
v 76.64909363 40.47748947 -2.72877526
v 101.49777985 62.01467514 -13.65138245
v 102.63684082 56.42604828 -9.6040411
v 122.50695038 68.13014221 -24.83000374
v 120.35601044 61.38731384 -21.8384304
v 134.04598999 63.78824615 -25.73814392
v 130.87297058 57.05413818 -24.79535294
v 138.22438049 51.94052505 -29.42713547
v 137.9160614 43.62663269 -26.70924759
v 143.08755493 32.87688828 -31.07353973
v 142.21160889 29.66303825 -27.84013748
v 148.03016663 23.38422775 -32.41621399
v 147.11456299 22.42205048 -29.18574905
v 151.28388977 20.28004646 -31.86166
v 150.58836365 18.32313156 -31.68258095
v 149.02494812 16.67758179 -30.98949814
v 146.80505371 18.4153347 -29.07266998
v 144.62283325 14.36696625 -28.42794418
v 148.21105957 14.75107861 -30.74373627
v 141.96858215 24.61707497 -25.69439125
v 139.79919434 17.10460663 -27.07647324
v 137.24942017 35.45605469 -24.32507706
v 134.48799133 28.79141045 -20.58216476
v 125.9363327 47.903862 -20.03551483
v 122.74708557 40.09943008 -17.24289894
v 115.93558502 53.06825638 -18.41098595
v 113.88265991 46.10881805 -14.76545143
v 104.25512695 48.14569855 -8.4136467
v 104.21168518 39.82844925 -8.0185833
v 79.12400818 26.27366257 -1.74412894
v 81.49559784 12.06753731 -1.12363887
v 70.23638153 6.0424304 6.09955549
v 73.37132263 -13.51105404 0.60266757
v 57.69125366 0.26102337 9.69571209
v 57.73011398 -17.44730377 8.20774937
v -64.04656982 -5.25013971 44.27399063
v -64.6724472 9.08748531 42.76383209
v -51.10736465 0.54158157 40.56594849
v -50.64500046 16.60142899 38.73614502
v -36.55256653 4.60547113 36.41036606
v -36.0902977 20.66967583 34.58056641
v -23.1431179 2.24448466 34.14181519
v -21.58567047 19.07859612 32.14440536
v -0.28228563 -5.31463957 26.18104744
v 1.29978204 11.05300522 27.52931213
v 21.08621979 -9.05798435 20.93277931
v 43.99238968 -22.97415543 8.0707674
v 44.85058594 -5.68588781 12.24313927
v 0.07236101 21.36401749 16.87647057
v -23.31663132 28.81838417 24.59685135
v -38.43748093 30.67513466 27.74510956
v -52.99211884 26.60445595 31.90069199
v -68.1078186 17.36828995 36.24802399
v 44.46046829 -33.95720291 3.75730467
v 59.50632858 -36.18854141 5.59948683
v 74.9111557 -31.28353882 -1.99983287
v 81.99263 -2.1802125 -7.10937166
v 105.4105072 31.53878403 -13.36739922
v 113.51973724 34.52970123 -19.72937965
v 121.55787659 27.68219757 -21.96708488
v 131.83760071 21.35297012 -24.8441143
v 137.25071716 14.83947754 -27.22303772
v 140.54885864 13.5076046 -27.8100071
v 145.60249329 12.0411005 -29.83865356
v 40.9936676 -40.32268524 -3.69594765
v 49.21022797 -39.58018875 -6.41452217
v 51.89122009 -30.65377235 5.66667747
v -43.59023285 -27.68090439 18.47236252
v -31.81748772 -30.93610382 17.7233963
v -84.70531464 -6.83195496 11.41231441
v -24.82269096 35.15826797 13.6233511
v -39.84967804 36.61866379 17.50301361
v 137.23687744 54.95710373 -33.03746414
v 133.0585022 66.80484009 -29.3484726
v 133.52760315 65.3718338 -27.63341904
v 149.784729 13.93055439 -33.76144028
v 150.94146729 16.11193657 -34.10340881
v 120.63833618 27.64223862 -25.57743835
v 130.9180603 21.31301117 -28.45446777
v 69.95253754 54.56638336 -18.96116638
v 56.42372894 44.85728455 -9.86683178
v -55.1745224 -39.31257248 21.94720078
v -58.14528656 -31.73340797 22.62794495
v -41.09888077 -33.23153687 23.88003159
v 12.46215534 -43.53331757 5.02246952
v 73.74026489 -33.25 -15.01998615
v 78.17422485 -2.28454375 -20.93587875
v -54.40431976 32.54798889 21.65859413
v 142.10006714 35.89346313 -34.68386841
v 138.34399414 11.65123272 -29.43013573
v 39.34944916 28.73652649 -5.19983196
v 19.63535309 25.15337372 0.9012289
v 96.79685974 64.59310913 -26.04217529
v -83.14692688 -5.63566446 25.68871117
v -66.13317871 -39.2237587 25.05619812
v -69.2464447 -34.08819199 24.18769073
v 101.59210205 31.43445206 -27.1939106
v 148.62800598 11.74916935 -33.41946411
v -69.52002716 23.31182289 26.00592613
v 147.04267883 26.40080452 -36.02653885
v -9.00757217 -38.19241714 10.82793427
v 152.09817505 18.29332161 -34.44537735
v 141.52105713 10.27864265 -31.39357567
v -1.33983779 27.30754852 6.63437414
v 122.19898987 68.82214355 -24.38319778
v 121.71524811 70.29988861 -26.15180588
v 146.45158386 10.97866631 -35.14732361
v 112.60020447 34.48974228 -23.33973312
v 47.91088867 37.59053802 -7.40549326
v 147.18133545 24.61009407 -40.34589767
v 148.37594604 19.34698296 -40.65176392
v -89.45816803 5.95547581 27.21797562
v -70.78265381 23.26973152 21.74496651
v -87.67802429 16.1031189 26.64891815
v -83.34274292 7.22031736 19.36510468
v 142.53363037 35.89280701 -37.90716553
v -80.36294556 -7.24581909 33.09379959
v 138.1668396 53.01288986 -36.35551071
v -50.59346008 -52.15870285 24.48332214
v -39.48762894 -33.79964447 31.45157623
v -47.44374084 -52.07506561 35.60663605
v -63.5743866 -52.48741531 40.18635941
v -61.06390381 -39.08915329 42.95848465
v -66.72410583 -52.57105255 29.06304932
v -50.10523987 -39.17797089 39.84947968
v -67.90530396 -66.43341827 29.59545517
v -59.9151001 -52.62623978 27.13131905
v -58.5836525 -65.96588898 26.94745636
v -64.75557709 -66.34979248 40.71876526
v -56.76538467 -52.54261017 38.25463104
v -71.5645752 -66.29460907 42.65049744
v -61.57995605 -77.04509735 37.34141922
v -55.43392944 -65.88225555 38.07076645
v -66.83335876 -77.30858612 38.83375549
v -63.35504532 -77.09223175 31.07264709
v -74.71429443 -66.37825012 31.52718163
v -65.52713776 -114.15349579 32.17311096
v -68.60845947 -77.35572052 32.56497955
v -60.27373123 -113.89000702 30.68077469
v -63.75204468 -114.10636902 38.44188309
v -70.67071533 -77.27748871 39.9224205
v -67.58939362 -114.07526398 39.53055191
v -72.44580078 -77.32461548 33.65364838
v -60.7918129 -122.57665253 31.82739258
v -69.36447906 -114.12240601 33.26177597
v -57.97380829 -122.59949493 31.02791595
v -52.81233978 -122.37138367 34.53555298
v -58.49863434 -113.84286499 36.94954681
v -56.67024231 -122.56487274 35.63146973
v -59.43658447 -130.12341309 39.62120056
v -59.48826218 -122.54204559 36.43094635
v -62.35256195 -130.20079041 29.32336998
v -56.04887009 -130.25189209 27.53499794
v -54.11590195 -122.4059906 29.93200111
v -47.41898727 -129.81907654 25.08350563
v -53.13289642 -130.17449951 37.83283234
v -44.5030098 -129.74165344 35.38133621
v 57.49652863 -37.32348633 -8.78001118
v 43.65352249 33.02962875 -6.37691307
v 45.0136261 27.30609131 3.45921063
v 65.96913147 -43.97470474 -8.3971138
v 68.37078094 -43.07842636 1.38335121
v 51.27387238 -20.23868942 6.22401094
v 49.45313644 15.34671974 9.54804897
v 51.16753387 -2.43230081 10.71926689
v 48.67671585 -48.162323 -3.46394253
v 54.44286346 -46.85669708 -5.10833406
v 53.00245285 -65.31768799 -1.27319014
v 55.77899933 -64.68753815 -2.06501603
v 57.3292923 -64.6465683 3.41643357
v 56.57944107 -45.53393936 9.71656227
v 51.89189148 -47.8825798 7.91944361
v 54.55275345 -65.27671814 4.20825768
v 62.46406555 -109.3944931 0.60524398
v 62.06466675 -62.58132935 0.22986539
v 57.72868347 -111.4597168 3.79181051
v 54.95214462 -112.08987427 4.58363533
v 53.40185165 -112.13084412 -0.89781237
v 61.33208847 -63.42723465 -3.64866519
v 58.64671326 -124.16578674 -2.23748136
v 56.17839813 -111.50069427 -1.68963695
v 61.42325974 -123.53564453 -3.02930593
v 62.9735527 -123.49467468 2.45214152
v 60.19701385 -124.12482452 3.2439661
v 61.73147583 -110.24038696 -3.27328587
v 78.8649826 -130.30441284 -9.52995491
v 66.97634125 -122.27532959 -4.61295509
v 67.70893097 -121.4294281 -0.73442668
v 80.46221924 -129.43429565 -2.60307908
v 72.43141174 -130.16235352 1.51015341
v 70.01646423 -130.22753906 -7.01963758
v 68.00714874 -130.12393188 2.76531363
v 65.59221649 -130.18908691 -5.76448298
v -100.8628006 -8.22610664 30.67986107
v -114.68397522 -23.01811409 34.83990097
v -105.15942383 1.08300555 31.84038925
v -119.52311707 -59.66965485 36.6852684
v -107.99533081 -30.6540451 32.99008942
v -114.96199036 -68.8421402 35.44882584
v -121.15293884 -80.00396729 36.21258545
v -121.50743103 -79.29109955 36.30867767
v 133.20944214 79.90857697 -18.61559677
v 132.98545837 80.5927887 -19.43447495
v 132.11883545 81.19947052 -19.70484924
v 132.33648682 80.5345993 -18.90911484
v 125.87277985 73.65211487 -18.71899605
v 131.96362305 71.71021271 -20.90324783
v 125.51207733 74.75396729 -20.03772163
v 131.59242249 72.84410858 -22.26032448
v 149.74964905 19.38748169 -35.93972778
v -82.36347961 9.35442924 19.81835747
v -83.514534 4.49230146 23.87469673
v -84.55986786 -7.33901691 18.30305672
v -84.58557129 -4.06288242 18.28970528
v -84.62339783 0.49179867 17.65592003
v -84.52378845 3.47882581 19.15804863
v -81.61436462 2.87218189 32.06059265
v -80.71391296 -0.15074974 33.00676346
v -81.15345764 -3.43721557 31.38050652
v -83.68955231 -3.473634 25.67990112
v -83.70651245 -1.3116051 25.67108917
v -83.7234726 0.85042435 25.66227913
vn -0.26394 0.54439 -0.79622
vn -0.35192 -0.39236 -0.84983
vn -0.33154 -0.41304 -0.84822
vn -0.27035 -0.27233 -0.92344
vn -0.11881 0.06183 -0.99099
vn -0.3259 0.21569 -0.92047
vn -0.50001 0.38016 -0.77812
vn -0.37388 0.50782 -0.7761
vn -0.53568 0.55545 -0.63602
vn -0.12443 0.45849 -0.87995
vn -0.29664 0.16307 -0.94096
vn 0.04963 0.05755 -0.99711
vn 0.42984 0.17713 -0.88536
vn 0.42457 0.3817 -0.82101
vn 0.19361 0.40488 -0.89364
vn 0.04659 -0.16928 -0.98447
vn -0.244 -0.15402 -0.95747
vn -0.01233 -0.06867 -0.99756
vn -0.07908 0.14292 -0.98657
vn -0.22259 0.17589 -0.95891
vn 0.05716 0.1182 -0.99134
vn -0.2819 0.01622 -0.95931
vn 0.03129 -0.04207 -0.99862
vn -0.12904 -0.14677 -0.98072
vn -0.65645 0.19234 -0.72944
vn -0.31777 0.09557 -0.94334
vn -0.29674 0.09063 -0.95065
vn -0.32596 0.1729 -0.92944
vn -0.19344 0.24517 -0.94999
vn -0.25715 0.24911 -0.93371
vn -0.10578 -0.33831 -0.93507
vn -0.17737 0.57413 -0.79932
vn -0.04602 0.54034 -0.84019
vn -0.18294 0.56062 -0.80761
vn -0.36948 0.58055 -0.72557
vn -0.51242 0.57072 -0.64164
vn -0.75712 0.58825 -0.28415
vn 0.04961 -0.08154 -0.99543
vn 0.15939 0.17163 -0.97218
vn 0.26428 0.20503 -0.9424
vn 0.00952 0.1619 -0.98676
vn -0.20601 0.24334 -0.94781
vn 0.05851 0.11813 -0.99127
vn -0.37223 0.11299 -0.92124
vn -0.05898 0.12445 -0.99047
vn -0.30838 0.06729 -0.94888
vn -0.16327 0.15994 -0.97353
vn -0.17402 -0.37038 -0.91244
vn -0.07517 -0.09658 -0.99248
vn 0.29588 -0.13693 -0.94536
vn 0.15905 -0.33037 -0.93035
vn 0.22405 -0.36087 -0.9053
vn -0.45295 -0.28577 -0.84449
vn -0.47115 -0.30445 -0.82785
vn -0.42014 -0.3467 -0.83862
vn -0.38489 -0.17963 -0.90531
vn -0.1197 -0.36639 -0.92273
vn -0.79339 -0.05652 -0.60608
vn -0.17069 -0.31453 -0.93378
vn -0.19 -0.28151 -0.94056
vn -0.42085 -0.27748 -0.86365
vn -0.35108 -0.35006 -0.86845
vn -0.34645 -0.39626 -0.85027
vn -0.08701 -0.80704 -0.58406
vn -0.23724 -0.89645 -0.3743
vn -0.80746 0.58658 0.06272
vn -0.09165 0.82676 -0.55504
vn 0.79432 0.32483 -0.51336
vn 0.36045 -0.39834 -0.84345
vn -0.48652 -0.86005 0.15367
vn -0.47164 0.80469 -0.3606
vn 0.53251 -0.31238 0.78667
vn -0.06935 -0.79792 -0.59876
vn 0.90563 -0.21573 -0.36511
vn -0.35532 0.82841 -0.43299
vn 0.85013 0.24865 -0.46417
vn -0.77055 -0.62959 0.09935
vn -0.27326 0.83486 -0.47785
vn -0.4559 0.85472 -0.2482
vn -0.84124 -0.48066 0.24754
vn 0.34619 -0.09579 0.93326
vn 0.78029 -0.58378 -0.2244
vn 0.42041 -0.32215 -0.84822
vn -0.55859 0.77471 -0.29631
vn 0.68603 0.43924 -0.58003
vn -0.34981 -0.76527 -0.54036
vn 0.46821 -0.32261 -0.82262
vn -0.84456 -0.48022 0.23686
vn -0.37646 -0.67595 -0.63354
vn -0.07919 0.8242 -0.56074
vn -0.34386 0.88271 -0.3203
vn -0.85908 -0.44573 0.25161
vn 0.16153 -0.76119 -0.62809
vn 0.2894 -0.95373 -0.08151
vn -0.79881 0.59562 -0.0845
vn 0.63248 0.59958 -0.49038
vn -0.37725 -0.75851 -0.53137
vn -0.98341 0.1066 -0.14678
vn -0.06855 -0.87192 -0.48483
vn 0.09758 0.78316 -0.61411
vn 0.04534 0.75035 -0.65949
vn -0.66895 0.71578 -0.20041
vn -0.60526 -0.77284 0.19074
vn -0.611 -0.77301 0.17068
vn -0.61258 0.77319 0.16405
vn 0.27325 0.95873 -0.07861
vn 0.29369 0.95235 -0.08229
vn -0.00717 -0.99544 -0.09507
vn -0.73696 -0.00797 0.67589
vn -0.27907 -0.95665 0.08331
vn -0.84753 -0.06962 0.52616
vn -0.26762 -0.00871 -0.96349
vn 0.29167 -0.95346 -0.07645
vn 0.63652 -0.7246 -0.2642
vn -0.67989 -0.403 0.61265
vn -0.22232 0.97326 0.05777
vn 0.09452 0.99512 -0.02838
vn -0.1209 -0.99004 -0.07217
vn -0.81058 0.54339 0.21839
vn 0.84437 -0.48382 -0.23011
vn -0.22366 -0.97232 0.06754
vn 0.69107 0.44084 -0.57278
vn -0.48938 0.86227 0.13038
vn 0.84437 -0.48382 -0.23011
vn 0.79035 -0.58303 -0.18821
vn 0.12289 -0.83531 0.53586
vn -0.80577 0.5443 0.2334
vn -0.32913 0.9405 0.0844
vn -0.16603 0.98521 0.04233
vn -0.87469 -0.48132 0.05696
vn 0.75007 0.22877 -0.62054
vn -0.25137 0.96567 0.06553
vn 0.96846 -0.23039 0.09492
vn 0.10403 -0.99423 -0.02604
vn 0.24923 -0.96599 -0.06887
vn -0.51416 0.84702 0.13489
vn -0.49097 -0.86017 0.13804
vn 0.84437 -0.48382 -0.23012
vn 0.83296 0.43554 -0.3413
vn 0.08996 0.99558 -0.02714
vn -0.80577 0.5443 0.23339
vn -0.26171 -0.96199 0.07796
vn 0.08336 -0.99631 -0.02035
vn 0.86287 -0.43738 -0.25327
vn -0.95471 0.1232 0.27084
vn -0.29781 0.01447 -0.95451
vn 0.94494 0.13018 -0.30023
vn 0.05585 0.08582 -0.99474
vn -0.84318 -0.47887 0.2444
vn 0.27334 -0.00182 0.96192
vn -0.27292 0.00156 -0.96204
vn -0.00219 -0.18152 -0.98338
vn 0.26201 -0.25475 0.93083
vn -0.26587 -0.25423 -0.92988
vn 0.53528 -0.17467 0.82642
vn -0.25574 -0.22547 -0.94009
vn 0.85652 -0.45627 -0.24123
vn -0.82353 0.51788 0.23153
vn 0.82353 -0.51788 -0.23153
vn -0.27334 0.00182 -0.96192
vn 0.27292 -0.00156 0.96204
vn 0.27328 -0.00046 0.96193
vn -0.27293 0.00049 -0.96203
vn 0.26425 -0.225 0.93784
vn -0.26768 -0.22389 -0.93713
vn 0.27665 -0.22666 0.93386
vn -0.95156 -0.14467 0.27131
vn 0.27076 -0.10165 0.95727
vn -0.26733 -0.09881 -0.95853
vn -0.95843 -0.08317 0.27295
vn 0.95843 0.08317 -0.27295
vn -0.27328 0.00046 -0.96193
vn 0.27293 -0.00049 0.96203
vn -0.95648 0.10716 0.27142
vn 0.2392 0.35328 0.90442
vn -0.27224 -0.10346 -0.95665
vn 0.27646 -0.09651 0.95617
vn -0.67207 -0.71442 0.19473
vn 0.78014 0.58382 -0.2248
vn 0.04769 -0.99883 -0.00848
vn -0.00616 -0.99996 0.00684
vn 0.66228 0.72424 -0.192
vn -0.27168 0.35863 -0.89307
vn 0.25737 0.3596 0.89691
vn -0.25134 0.36519 -0.89636
vn 0.48948 -0.757 0.43285
vn -0.69696 0.69226 0.18716
vn -0.75319 0.64821 -0.11192
vn 0.73995 -0.55638 -0.37804
vn -0.64794 -0.13022 -0.75048
vn -0.42569 0.05881 -0.90295
vn -0.51968 -0.17762 -0.83569
vn -0.62702 0.3616 -0.69
vn -0.58988 0.41706 -0.69145
vn -0.19944 -0.24478 -0.94885
vn -0.35895 0.07342 -0.93047
vn -0.43772 -0.22866 -0.86955
vn -0.72402 0.67403 -0.14656
vn -0.66973 0.72053 0.1797
vn 0.24442 -0.96737 -0.06673
vn 0.3302 -0.29228 0.89752
vn 0.30546 -0.16857 0.93716
vn -0.52514 -0.27757 -0.80448
vn -0.94387 0.06498 0.32386
vn -0.57204 0.22909 -0.78758
vn 0.28666 -0.33054 0.89921
vn -0.04457 0.07973 -0.99582
vn 0.0352 -0.00013 -0.99938
vn -0.96176 -0.00602 0.27383
vn 0.30785 -0.16769 0.93654
vn -0.94218 -0.20227 0.26717
vn 0.10733 -0.24491 -0.96359
vn 0.89769 -0.2824 -0.33823
vn 0.27409 0.00077 0.9617
vn -0.27409 -0.00077 -0.9617
vn 0.93415 0.00581 -0.35684
vn -0.27381 -0.00209 -0.96178
vn 0.27381 0.00209 0.96178
vn 0.27381 0.00209 0.96178
vn 0.53306 0.84388 -0.06095
vn -0.11102 0.40686 -0.90672
vn 0.27409 0.00077 0.9617
vn -0.87665 -0.41006 0.25167
vn -0.00831 0.11804 -0.99297
vn 0.87772 0.41007 -0.24789
vn 0.0273 -0.99801 -0.05689
vn -0.00674 -0.99995 0.00688
vn -0.28344 0.22105 -0.93317
vn 0.25007 0.2193 0.94307
vn 0.25408 0.1892 0.9485
vn -0.59353 -0.78604 0.17281
vn 0.73709 -0.64303 -0.2079
vn -0.73338 0.65061 0.19715
vn -0.36424 0.92598 0.09944
vn 0.57597 -0.80219 -0.15731
vn -0.88836 0.38252 0.25395
vn -0.6119 0.77168 0.17348
vn -0.26555 -0.00504 -0.96409
vn -0.95241 0.13945 0.27106
vn -0.26747 -0.00221 -0.96356
vn 0.91208 -0.31672 -0.26039
vn 0.84196 -0.48399 -0.23844
vn -0.26604 -0.00106 -0.96396
vn 0.9443 -0.18964 -0.26894
vn -0.85464 -0.45796 0.24466
vn -0.95813 0.09168 0.27125
vn -0.35386 -0.05007 -0.93396
vn 0.02713 0.75352 -0.65687
vn -0.35144 -0.2358 -0.90603
vn -0.80664 0.54397 -0.23116
vn 0.36021 0.30935 0.88009
vn 0.97013 -0.05778 -0.23561
vn 0.83509 0.2708 -0.47884
vn 0.3599 0.59985 0.7146
vn -0.9949 0.09092 0.04367
vn -0.44169 -0.60237 -0.66487
vn 0.75521 0.20663 -0.62206
vn 0.8473 0.47656 -0.23448
vn -0.90738 -0.38664 0.16485
vn 0.75191 -0.2426 -0.61301
vn 0.22333 0.6207 0.75157
vn 0.15704 -0.4321 0.88805
vn 0.16472 -0.40202 0.90069
vn 0.25584 -0.26065 0.93092
vn 0.41916 0.07378 0.90491
vn 0.20539 0.22749 0.95187
vn -0.01746 0.39013 0.92059
vn 0.09862 0.50986 0.85459
vn -0.11444 0.5512 0.82649
vn 0.37032 0.43738 0.81949
vn 0.23935 0.18377 0.95338
vn 0.56572 0.06901 0.8217
vn 0.83019 0.18602 0.52553
vn 0.79123 0.38984 0.47116
vn 0.63275 0.41463 0.65399
vn 0.55725 -0.15794 0.81519
vn 0.29965 -0.17264 0.9383
vn 0.54439 -0.0499 0.83734
vn 0.47927 0.18993 0.85687
vn 0.35263 0.26602 0.89715
vn 0.56557 0.13747 0.81316
vn 0.20862 0.06556 0.9758
vn 0.55124 -0.03052 0.83379
vn 0.40575 -0.13489 0.90398
vn -0.28803 0.1319 0.94849
vn 0.22472 0.10762 0.96846
vn 0.24646 0.10269 0.9637
vn 0.17945 0.1028 0.97838
vn 0.26316 -0.00602 0.96473
vn 0.22389 -0.09779 0.9697
vn 0.35337 -0.25121 0.90112
vn 0.25518 0.70244 0.66443
vn 0.3911 0.64955 0.65202
vn 0.21497 0.60364 0.76773
vn 0.07231 0.57418 0.81553
vn -0.09157 0.5682 0.81778
vn -0.42457 0.52434 0.73811
vn 0.56529 -0.07009 0.82191
vn 0.59985 0.15905 0.78414
vn 0.70357 0.1866 0.6857
vn 0.52581 0.17337 0.83275
vn 0.32167 0.25506 0.91185
vn 0.57001 0.12949 0.81137
vn 0.1667 0.12496 0.97806
vn 0.46959 0.13619 0.87231
vn 0.23571 0.07937 0.96858
vn 0.40666 -0.00593 0.91356
vn 0.30103 -0.43211 0.8501
vn 0.45761 -0.08475 0.88511
vn 0.74874 -0.12687 0.65061
vn 0.62251 -0.31374 0.71697
vn 0.66483 -0.3219 0.67408
vn -0.02487 -0.37287 0.92755
vn -0.06345 -0.40127 0.91376
vn 0.02671 -0.42531 0.90465
vn 0.14853 -0.16779 0.97457
vn 0.38397 -0.35521 0.85229
vn -0.52301 -0.01542 0.85219
vn 0.3462 -0.30305 0.88787
vn 0.33323 -0.26989 0.90339
vn 0.117 -0.25504 0.95983
vn 0.2336 -0.26435 0.93571
vn 0.18804 -0.24989 0.94984
vn 0.23538 -0.79988 0.55208
vn -0.00234 -0.89123 0.45354
vn -0.99412 -0.06482 -0.08675
vn 0.20395 0.85913 0.46937
vn 0.94449 0.32816 0.01585
vn 0.75103 -0.38966 0.53302
vn -0.49188 -0.86017 0.1348
vn -0.24583 0.82297 0.51214
vn 0.04103 -0.32329 -0.94541
vn 0.25199 -0.76345 0.59467
vn 0.96313 -0.21445 -0.16245
vn -0.09382 0.85543 0.50935
vn 0.9664 0.25123 -0.05442
vn -0.70581 -0.62815 0.32749
vn -0.00096 0.86474 0.50222
vn -0.27403 0.87303 0.40339
vn -0.60897 -0.56167 0.56006
vn -0.19523 -0.10782 -0.97481
vn 0.78379 -0.5837 -0.21205
vn 0.80431 -0.31363 0.5047
vn -0.33867 0.79278 0.50675
vn 0.88697 0.4437 0.12813
vn -0.01978 -0.76248 0.64671
vn 0.83155 -0.31454 0.45781
vn 0.01461 -0.66727 0.74468
vn 0.21552 0.85743 0.4673
vn -0.14885 0.91506 0.37485
vn -0.86172 -0.44579 0.24229
vn 0.46985 -0.75434 0.45848
vn 0.29223 -0.95367 -0.07151
vn -0.58918 0.70541 0.39402
vn 0.79378 0.60317 0.07809
vn -0.03944 -0.751 0.65912
vn -0.85875 -0.48778 -0.15693
vn 0.19919 -0.86597 0.45871
vn 0.39786 0.81664 0.41809
vn 0.38246 0.75783 0.52859
vn -0.48031 0.72825 0.48883
vn -0.61268 -0.773 0.1646
vn -0.60703 -0.77293 0.18468
vn -0.61001 0.77325 0.17312
vn 0.27064 0.95867 -0.0878
vn 0.28999 0.95227 -0.09534
vn 0.04712 -0.99424 0.09627
vn -0.99293 0.02387 -0.11627
vn -0.27807 -0.95663 0.08683
vn -0.97255 -0.22434 0.06178
vn 0.27832 0.00341 0.96048
vn 0.29151 -0.95346 -0.07701
vn 0.68282 -0.72357 -0.10104
vn -0.899 -0.40787 -0.15952
vn -0.22275 0.97325 0.05625
vn 0.09205 0.99506 -0.03711
vn -0.0617 -0.98872 0.13646
vn -0.89138 0.45152 0.03974
vn 0.84099 -0.4839 -0.24202
vn -0.22258 -0.9723 0.07134
vn 0.88745 0.4452 0.11928
vn -0.48778 0.86231 0.13602
vn 0.84099 -0.4839 -0.24202
vn 0.77334 -0.58341 -0.24814
vn -0.17409 -0.84191 -0.51077
vn -0.73706 -0.02818 0.67524
vn -0.32752 0.94054 0.09008
vn -0.16678 0.98519 0.03969
vn -0.77266 -0.47906 0.41653
vn 0.96342 0.23348 0.13154
vn -0.25152 0.96567 0.06499
vn 0.77504 -0.23469 -0.58671
vn 0.10549 -0.9942 -0.02089
vn 0.25146 -0.96594 -0.06103
vn -0.51119 0.84708 0.14538
vn -0.48746 -0.86009 0.15043
vn 0.841 -0.4839 -0.24202
vn 0.88664 0.43667 -0.15228
vn 0.08752 0.99552 -0.03577
vn -0.8012 0.33795 0.49383
vn -0.26047 -0.96196 0.08234
vn 0.08492 -0.99628 -0.01484
vn 0.86875 -0.43725 -0.23257
vn -0.95508 0.12319 0.26952
vn 0.24783 0.02658 0.96844
vn 0.96137 0.13054 -0.24234
vn 0.56968 0.09723 0.8161
vn -0.8443 -0.47889 0.24046
vn -0.27258 -0.01395 -0.96203
vn 0.27301 0.01368 0.96191
vn 0.51521 -0.17003 0.84003
vn -0.26506 -0.26646 -0.92668
vn 0.26297 -0.24248 0.93384
vn 0.02205 -0.18606 -0.98229
vn 0.27685 -0.21364 0.93686
vn 0.85708 -0.45626 -0.23926
vn -0.82411 0.51786 0.22947
vn 0.82411 -0.51786 -0.22947
vn 0.27258 0.01395 0.96203
vn -0.27301 -0.01368 -0.96191
vn -0.27265 -0.01259 -0.96203
vn 0.273 0.01262 0.96193
vn -0.26694 -0.23679 -0.93417
vn 0.26513 -0.21206 0.9406
vn -0.25429 -0.23845 -0.93727
vn -0.95176 -0.14467 0.27059
vn -0.27201 -0.1137 -0.95555
vn 0.27625 -0.08674 0.95716
vn -0.95867 -0.08317 0.27209
vn 0.95867 0.08317 -0.27209
vn 0.27265 0.01259 0.96203
vn -0.273 -0.01262 -0.96193
vn -0.95684 0.10715 0.27014
vn -0.27262 0.34192 -0.89932
vn 0.2711 -0.09139 0.9582
vn -0.2666 -0.10857 -0.95767
vn -0.67182 -0.71442 0.19561
vn 0.78001 0.58382 -0.22526
vn 0.04834 -0.99881 -0.00618
vn -0.00553 -0.99994 0.00908
vn 0.66202 0.72423 -0.19291
vn 0.23666 0.36991 0.89842
vn -0.25323 0.34827 -0.90254
vn 0.25568 0.37645 0.89046
vn 0.1917 -0.76362 -0.61655
vn -0.69368 0.69233 0.19872
vn -0.59371 0.65743 0.464
vn 0.83007 -0.55438 -0.06045
vn -0.15679 -0.11932 0.9804
vn 0.11178 0.07075 0.99121
vn -0.00274 -0.16614 0.9861
vn -0.1742 0.37372 0.91104
vn -0.13907 0.42589 0.89403
vn 0.32943 -0.23304 0.91497
vn 0.18299 0.08546 0.97939
vn 0.08495 -0.21705 0.97246
vn -0.55325 0.68435 0.47495
vn -0.66668 0.7206 0.19044
vn 0.24625 -0.96733 -0.06031
vn -0.18942 -0.30382 -0.93371
vn -0.2317 -0.1805 -0.95589
vn -0.02345 -0.26643 0.96357
vn -0.97352 0.06432 0.21939
vn -0.07391 0.24015 0.96792
vn -0.22723 -0.34195 -0.91183
vn 0.48481 0.09149 0.86982
vn 0.55483 0.0114 0.83189
vn -0.96223 -0.00603 0.27219
vn -0.22935 -0.17962 -0.95663
vn -0.94142 -0.20225 0.26986
vn 0.59822 -0.23401 0.7664
vn 0.94248 -0.2814 -0.18037
vn -0.27185 -0.01136 -0.96227
vn 0.27185 0.01136 0.96227
vn 0.98233 0.00688 -0.18705
vn 0.27213 0.01004 0.96221
vn -0.27213 -0.01004 -0.96221
vn -0.27213 -0.01004 -0.96221
vn 0.48284 0.84276 -0.23795
vn 0.38038 0.41777 0.82509
vn -0.27185 -0.01136 -0.96227
vn -0.87682 -0.41007 0.25105
vn 0.51404 0.12964 0.84791
vn 0.87575 0.41002 -0.25484
vn 0.05641 -0.99736 0.04571
vn -0.00604 -0.99994 0.00935
vn 0.24817 0.23286 0.94031
vn -0.28322 0.20746 -0.93635
vn -0.28256 0.17729 -0.94272
vn -0.59324 -0.78603 0.17384
vn 0.73856 -0.64299 -0.20272
vn -0.72978 0.65069 0.20982
vn -0.36525 0.92596 0.09589
vn 0.57541 -0.8022 -0.15929
vn -0.89061 0.38248 0.24602
vn -0.61437 0.77162 0.16475
vn 0.28038 0.00708 0.95986
vn -0.95329 0.13943 0.26793
vn 0.27847 0.00991 0.9604
vn 0.91396 -0.31668 -0.25376
vn 0.84332 -0.48397 -0.23366
vn 0.27988 0.01106 0.95997
vn 0.94545 -0.18961 -0.26489
vn -0.85426 -0.45795 0.24601
vn -0.95811 0.09168 0.27134
vn 0.18955 -0.038 0.98114
vn 0.36558 0.76104 0.53589
vn 0.17756 -0.22405 0.95827
vn -0.56682 0.54929 0.61399
vn -0.15672 0.29788 -0.94165
vn 0.94948 -0.05824 -0.30837
vn 0.96123 0.27361 -0.03431
vn -0.07103 0.59028 -0.80406
vn -0.82521 -0.03354 0.56383
vn -0.08622 -0.62407 0.7766
vn 0.96869 0.21137 0.13026
vn 0.8426 0.47645 -0.25103
vn -0.8361 -0.31717 0.4476
vn 0.96331 0.23413 0.13119
vn 0.75001 0.22939 -0.62038
vn 0.87824 0.47704 -0.03338
vn 0.76332 0.4745 -0.4384
vn -0.88171 0.40734 0.23805
vn -0.99976 -0.00776 0.02053
vn -0.87701 0.40668 0.25586
vn -0.89867 -0.35403 0.25895
vn -0.99953 0.02314 0.02026
vn -0.99979 -0.00557 0.01965
vn -0.8299 0.55762 -0.01798
vn -0.94843 0.29264 0.12181
vn -0.87701 0.40668 0.25586
vn -0.89986 -0.35316 0.25599
vn -0.73697 -0.00797 0.67588
vn -0.88171 0.40734 0.23806
vn -0.81988 -0.03355 0.57155
vn -0.89074 0.45266 0.04113
vn -0.81058 0.54339 0.21839
vn -0.98035 -0.10177 0.16898
vn -0.99311 0.0031 0.11712
vn -0.97365 0.14303 0.17761
vn -0.99352 -0.01666 0.11242
vn -0.92595 -0.10186 0.36364
vn -0.91816 -0.04563 0.39358
vn -0.9497 0.1802 0.25612
vn -0.92556 -0.09633 0.36614
vn -0.90675 0.3752 0.19243
vn -0.90473 0.27319 0.32685
usemtl mat0
f 1//1 2//1 3//1
f 3//1 4//1 1//1
f 5//2 6//2 7//2
f 7//2 8//2 5//2
f 9//3 10//3 6//3
f 6//3 5//3 9//3
f 11//4 12//4 10//4
f 10//4 9//4 11//4
f 13//5 14//5 12//5
f 12//5 11//5 13//5
f 15//6 16//6 14//6
f 14//6 13//6 15//6
f 17//7 18//7 19//7
f 19//7 20//7 17//7
f 21//8 22//8 18//8
f 18//8 17//8 21//8
f 23//9 24//9 22//9
f 22//9 21//9 23//9
f 25//10 26//10 24//10
f 24//10 23//10 25//10
f 27//11 28//11 26//11
f 26//11 25//11 27//11
f 29//12 30//12 28//12
f 28//12 27//12 29//12
f 31//13 32//13 30//13
f 30//13 29//13 31//13
f 33//14 34//14 32//14
f 32//14 31//14 33//14
f 35//15 36//15 34//15
f 34//15 33//15 35//15
f 37//16 38//16 39//16
f 39//16 40//16 37//16
f 40//17 39//17 41//17
f 41//17 42//17 40//17
f 42//18 41//18 43//18
f 43//18 44//18 42//18
f 44//19 43//19 45//19
f 45//19 46//19 44//19
f 46//20 45//20 47//20
f 47//20 48//20 46//20
f 48//21 47//21 49//21
f 49//21 50//21 48//21
f 50//22 49//22 51//22
f 51//22 52//22 50//22
f 52//23 51//23 53//23
f 53//23 54//23 52//23
f 54//24 53//24 55//24
f 55//24 56//24 54//24
f 57//25 58//25 59//25
f 59//25 60//25 57//25
f 60//26 59//26 61//26
f 61//26 62//26 60//26
f 62//27 61//27 63//27
f 63//27 64//27 62//27
f 64//28 63//28 65//28
f 65//28 66//28 64//28
f 66//29 65//29 67//29
f 67//29 68//29 66//29
f 68//30 67//30 4//30
f 4//30 69//30 68//30
f 69//31 70//31 71//31
f 71//31 7//31 69//31
f 67//32 72//32 1//32
f 1//32 4//32 67//32
f 65//33 73//33 72//33
f 72//33 67//33 65//33
f 63//34 74//34 73//34
f 73//34 65//34 63//34
f 61//35 75//35 74//35
f 74//35 63//35 61//35
f 59//36 76//36 75//36
f 75//36 61//36 59//36
f 58//37 77//37 76//37
f 76//37 59//37 58//37
f 36//38 37//38 40//38
f 40//38 34//38 36//38
f 34//39 40//39 42//39
f 42//39 32//39 34//39
f 32//40 42//40 44//40
f 44//40 30//40 32//40
f 30//41 44//41 46//41
f 46//41 28//41 30//41
f 28//42 46//42 48//42
f 48//42 26//42 28//42
f 26//43 48//43 50//43
f 50//43 24//43 26//43
f 24//44 50//44 52//44
f 52//44 22//44 24//44
f 22//45 52//45 54//45
f 54//45 18//45 22//45
f 18//46 54//46 56//46
f 56//46 19//46 18//46
f 4//47 3//47 70//47
f 70//47 69//47 4//47
f 7//48 71//48 78//48
f 78//48 8//48 7//48
f 53//49 79//49 80//49
f 80//49 55//49 53//49
f 51//50 81//50 79//50
f 79//50 53//50 51//50
f 49//51 82//51 81//51
f 81//51 51//51 49//51
f 47//52 83//52 82//52
f 82//52 49//52 47//52
f 45//53 84//53 83//53
f 83//53 47//53 45//53
f 43//54 85//54 84//54
f 84//54 45//54 43//54
f 41//55 86//55 85//55
f 85//55 43//55 41//55
f 39//56 87//56 86//56
f 86//56 41//56 39//56
f 38//57 88//57 87//57
f 87//57 39//57 38//57
f 89//58 57//58 60//58
f 60//58 16//58 89//58
f 16//59 60//59 62//59
f 62//59 14//59 16//59
f 14//60 62//60 64//60
f 64//60 12//60 14//60
f 12//61 64//61 66//61
f 66//61 10//61 12//61
f 10//62 66//62 68//62
f 68//62 6//62 10//62
f 6//63 68//63 69//63
f 69//63 7//63 6//63
f 78//64 90//64 91//64
f 91//64 92//64 78//64
f 11//65 9//65 93//65
f 93//65 94//65 11//65
f 95//66 96//66 97//66
f 97//66 98//66 95//66
f 73//67 74//67 99//67
f 99//67 100//67 73//67
f 101//68 102//68 103//68
f 103//68 29//68 27//68
f 27//68 101//68 103//68
f 37//69 36//69 104//69
f 104//69 105//69 37//69
f 84//70 85//70 106//70
f 106//70 107//70 84//70
f 21//71 17//71 108//71
f 108//71 109//71 21//71
f 110//72 111//72 94//72
f 94//72 112//72 110//72
f 8//73 78//73 92//73
f 92//73 113//73 8//73
f 79//74 81//74 114//74
f 114//74 115//74 79//74
f 74//75 75//75 116//75
f 116//75 99//75 74//75
f 31//76 29//76 103//76
f 103//76 117//76 31//76
f 85//77 86//77 118//77
f 118//77 106//77 85//77
f 2//78 1//78 119//78
f 119//78 120//78 2//78
f 23//79 21//79 109//79
f 109//79 121//79 23//79
f 122//80 123//80 16//80
f 16//80 124//80 122//80
f 125//81 110//81 112//81
f 112//81 126//81 125//81
f 81//82 82//82 127//82
f 127//82 114//82 81//82
f 38//83 37//83 105//83
f 105//83 128//83 38//83
f 75//84 76//84 129//84
f 129//84 116//84 75//84
f 33//85 31//85 117//85
f 117//85 130//85 33//85
f 5//86 8//86 113//86
f 113//86 131//86 5//86
f 36//87 35//87 132//87
f 132//87 104//87 36//87
f 133//88 134//88 135//88
f 135//88 136//88 133//88
f 86//89 87//89 137//89
f 137//89 118//89 86//89
f 1//90 72//90 138//90
f 138//90 119//90 1//90
f 25//91 23//91 121//91
f 121//91 139//91 140//91
f 140//91 25//91 121//91
f 16//92 15//92 126//92
f 126//92 124//92 16//92
f 88//93 38//93 128//93
f 128//93 141//93 88//93
f 82//94 83//94 142//94
f 142//94 127//94 82//94
f 76//95 77//95 143//95
f 143//95 129//95 76//95
f 35//96 33//96 130//96
f 130//96 132//96 35//96
f 9//97 5//97 131//97
f 131//97 93//97 9//97
f 144//98 145//98 58//98
f 58//98 57//98 144//98
f 87//99 88//99 141//99
f 141//99 137//99 87//99
f 72//100 73//100 100//100
f 100//100 138//100 72//100
f 101//101 140//101 139//101
f 139//101 102//101 101//101
f 17//102 20//102 146//102
f 146//102 108//102 17//102
f 83//103 84//103 107//103
f 107//103 142//103 83//103
f 142//104 107//104 147//104
f 147//104 148//104 142//104
f 108//105 146//105 149//105
f 149//105 150//105 108//105
f 102//106 139//106 151//106
f 151//106 152//106 102//106
f 138//107 100//107 153//107
f 153//107 154//107 138//107
f 137//108 141//108 155//108
f 155//108 156//108 137//108
f 157//109 158//109 159//109
f 159//109 160//109 157//109
f 93//110 131//110 161//110
f 161//110 162//110 93//110
f 163//111 164//111 130//111
f 130//111 165//111 163//111
f 127//113 142//113 148//113
f 148//113 170//113 127//113
f 141//114 128//114 171//114
f 171//114 155//114 141//114
f 124//115 126//115 172//115
f 172//115 173//115 124//115
f 139//116 121//116 174//116
f 174//116 151//116 139//116
f 119//117 138//117 154//117
f 154//117 175//117 119//117
f 118//118 137//118 156//118
f 156//118 176//118 118//118
f 177//119 178//119 179//119
f 179//119 169//119 177//119
f 104//120 132//120 180//120
f 180//120 181//120 104//120
f 131//121 113//121 182//121
f 182//121 161//121 131//121
f 117//122 183//122 184//122
f 184//122 164//122 130//122
f 130//122 117//122 184//122
f 168//123 185//123 186//123
f 186//123 116//123 129//123
f 129//123 168//123 186//123
f 128//124 105//124 187//124
f 187//124 171//124 128//124
f 114//125 127//125 170//125
f 170//125 188//125 114//125
f 126//126 112//126 189//126
f 189//126 172//126 126//126
f 190//127 95//127 98//127
f 98//127 191//127 190//127
f 121//128 109//128 192//128
f 192//128 174//128 121//128
f 120//129 119//129 175//129
f 175//129 193//129 120//129
f 106//130 118//130 176//130
f 176//130 194//130 106//130
f 99//132 116//132 186//132
f 186//132 197//132 99//132
f 115//133 114//133 188//133
f 188//133 198//133 115//133
f 113//134 92//134 199//134
f 199//134 182//134 113//134
f 112//135 94//135 200//135
f 200//135 189//135 112//135
f 109//136 108//136 150//136
f 150//136 192//136 109//136
f 107//137 106//137 194//137
f 194//137 147//137 107//137
f 105//138 104//138 181//138
f 181//138 187//138 105//138
f 103//139 102//139 152//139
f 152//139 201//139 195//139
f 195//139 103//139 152//139
f 100//140 99//140 197//140
f 197//140 153//140 100//140
f 178//141 190//141 191//141
f 191//141 179//141 178//141
f 94//142 93//142 162//142
f 162//142 200//142 94//142
f 92//143 91//143 202//143
f 202//143 199//143 92//143
f 203//144 204//144 205//144
f 205//144 111//144 203//144
f 206//145 207//145 125//145
f 125//145 208//145 206//145
f 209//146 208//146 15//146
f 15//146 13//146 209//146
f 111//147 205//147 11//147
f 11//147 94//147 111//147
f 205//148 209//148 13//148
f 13//148 11//148 205//148
f 208//149 125//149 126//149
f 126//149 15//149 208//149
f 210//150 211//150 203//150
f 203//150 212//150 210//150
f 213//151 214//151 206//151
f 206//151 215//151 213//151
f 204//152 215//152 209//152
f 209//152 205//152 204//152
f 207//153 212//153 110//153
f 110//153 125//153 207//153
f 215//154 206//154 208//154
f 208//154 209//154 215//154
f 212//155 203//155 111//155
f 111//155 110//155 212//155
f 216//156 217//156 213//156
f 213//156 218//156 216//156
f 219//157 216//157 218//157
f 218//157 211//157 219//157
f 214//158 220//158 207//158
f 207//158 206//158 214//158
f 211//159 218//159 204//159
f 204//159 203//159 211//159
f 218//160 213//160 215//160
f 215//160 204//160 218//160
f 220//161 210//161 212//161
f 212//161 207//161 220//161
f 221//162 222//162 219//162
f 219//162 223//162 221//162
f 224//163 225//163 226//163
f 226//163 217//163 224//163
f 227//164 223//164 210//164
f 210//164 220//164 227//164
f 217//165 226//165 214//165
f 214//165 213//165 217//165
f 223//166 219//166 211//166
f 211//166 210//166 223//166
f 226//167 227//167 220//167
f 220//167 214//167 226//167
f 228//168 229//168 221//168
f 221//168 230//168 228//168
f 231//169 232//169 224//169
f 224//169 233//169 231//169
f 225//170 230//170 227//170
f 227//170 226//170 225//170
f 222//171 233//171 216//171
f 216//171 219//171 222//171
f 233//172 224//172 217//172
f 217//172 216//172 233//172
f 230//173 221//173 223//173
f 223//173 227//173 230//173
f 234//174 235//174 228//174
f 228//174 236//174 234//174
f 237//175 238//175 239//175
f 239//175 229//175 237//175
f 232//176 236//176 225//176
f 225//176 224//176 232//176
f 229//177 239//177 222//177
f 222//177 221//177 229//177
f 236//178 228//178 230//178
f 230//178 225//178 236//178
f 239//179 231//179 233//179
f 233//179 222//179 239//179
f 240//180 241//180 238//180
f 238//180 237//180 240//180
f 234//181 240//181 237//181
f 237//181 235//181 234//181
f 238//182 241//182 231//182
f 231//182 239//182 238//182
f 241//183 240//183 232//183
f 232//183 231//183 241//183
f 235//184 237//184 229//184
f 229//184 228//184 235//184
f 240//185 234//185 236//185
f 236//185 232//185 240//185
f 242//186 115//186 198//186
f 198//186 243//186 242//186
f 146//187 244//187 245//187
f 245//187 149//187 146//187
f 20//188 246//188 244//188
f 244//188 146//188 20//188
f 247//189 248//189 79//189
f 79//189 115//189 247//189
f 55//190 80//190 90//190
f 90//190 249//190 55//190
f 19//191 56//191 250//191
f 250//191 251//191 19//191
f 56//192 55//192 249//192
f 249//192 250//192 56//192
f 20//193 19//193 251//193
f 251//193 246//193 20//193
f 246//194 251//194 3//194
f 3//194 2//194 246//194
f 250//195 249//195 71//195
f 71//195 70//195 250//195
f 251//196 250//196 70//196
f 70//196 3//196 251//196
f 249//197 90//197 78//197
f 78//197 71//197 249//197
f 246//198 2//198 120//198
f 120//198 244//198 246//198
f 244//199 120//199 193//199
f 193//199 245//199 244//199
f 91//200 242//200 243//200
f 243//200 202//200 91//200
f 252//201 253//201 242//201
f 242//201 91//201 252//201
f 254//202 255//202 253//202
f 253//202 252//202 254//202
f 256//203 257//203 258//203
f 258//203 259//203 256//203
f 258//204 252//204 91//204
f 91//204 90//204 258//204
f 259//205 258//205 90//205
f 90//205 80//205 259//205
f 253//206 247//206 115//206
f 115//206 242//206 253//206
f 248//207 259//207 80//207
f 80//207 79//207 248//207
f 260//208 261//208 256//208
f 256//208 262//208 260//208
f 263//209 264//209 254//209
f 254//209 257//209 263//209
f 255//210 265//210 247//210
f 247//210 253//210 255//210
f 257//211 254//211 252//211
f 252//211 258//211 257//211
f 262//212 256//212 259//212
f 259//212 248//212 262//212
f 265//213 262//213 248//213
f 248//213 247//213 265//213
f 266//214 267//214 268//214
f 268//214 264//214 266//214
f 269//215 270//215 263//215
f 263//215 261//215 269//215
f 271//216 260//216 262//216
f 262//216 265//216 271//216
f 261//217 263//217 257//217
f 257//217 256//217 261//217
f 264//218 268//218 255//218
f 255//218 254//218 264//218
f 268//219 271//219 265//219
f 265//219 255//219 268//219
f 272//220 273//220 274//220
f 274//220 275//220 272//220
f 273//221 276//221 269//221
f 269//221 274//221 273//221
f 267//222 275//222 271//222
f 271//222 268//222 267//222
f 270//223 266//223 264//223
f 264//223 263//223 270//223
f 274//224 269//224 261//224
f 261//224 260//224 274//224
f 275//225 274//225 260//225
f 260//225 271//225 275//225
f 276//226 273//226 272//226
f 272//226 277//226 276//226
f 278//227 276//227 277//227
f 277//227 279//227 278//227
f 276//228 278//228 270//228
f 270//228 269//228 276//228
f 279//229 277//229 267//229
f 267//229 266//229 279//229
f 277//230 272//230 275//230
f 275//230 267//230 277//230
f 278//231 279//231 266//231
f 266//231 270//231 278//231
f 129//233 143//233 169//233
f 169//233 168//233 129//233
f 296//245 293//245 292//245
f 292//245 297//245 296//245
f 298//248 299//248 300//248
f 300//248 301//248 298//248
f 299//249 298//249 302//249
f 302//249 303//249 299//249
f 300//250 299//250 303//250
f 303//250 304//250 300//250
f 301//251 300//251 304//251
f 304//251 305//251 301//251
f 298//252 301//252 305//252
f 305//252 302//252 298//252
f 302//253 305//253 101//253
f 101//253 27//253 302//253
f 305//254 304//254 140//254
f 140//254 101//254 305//254
f 304//255 303//255 25//255
f 25//255 140//255 304//255
f 303//256 302//256 27//256
f 27//256 25//256 303//256
f 130//257 164//257 180//257
f 130//258 180//258 132//258
f 130//259 306//259 165//259
f 130//260 164//260 163//260
f 307//261 308//261 309//261
f 309//261 310//261 307//261
f 311//262 312//262 313//262
f 313//262 314//262 311//262
f 315//263 311//263 314//263
f 314//263 316//263 315//263
f 317//264 315//264 316//264
f 316//264 318//264 317//264
f 319//265 317//265 318//265
f 318//265 320//265 319//265
f 321//266 319//266 320//266
f 320//266 136//266 321//266
f 322//267 323//267 324//267
f 324//267 325//267 322//267
f 326//268 322//268 325//268
f 325//268 327//268 326//268
f 328//269 326//269 327//269
f 327//269 329//269 328//269
f 330//270 328//270 329//270
f 329//270 331//270 330//270
f 332//271 330//271 331//271
f 331//271 333//271 332//271
f 334//272 332//272 333//272
f 333//272 335//272 334//272
f 336//273 334//273 335//273
f 335//273 337//273 336//273
f 338//274 336//274 337//274
f 337//274 339//274 338//274
f 340//275 338//275 339//275
f 339//275 341//275 340//275
f 342//276 343//276 344//276
f 344//276 345//276 342//276
f 343//277 346//277 347//277
f 347//277 344//277 343//277
f 346//278 348//278 349//278
f 349//278 347//278 346//278
f 348//279 350//279 351//279
f 351//279 349//279 348//279
f 350//280 352//280 353//280
f 353//280 351//280 350//280
f 352//281 354//281 355//281
f 355//281 353//281 352//281
f 354//282 356//282 357//282
f 357//282 355//282 354//282
f 356//283 358//283 359//283
f 359//283 357//283 356//283
f 358//284 360//284 361//284
f 361//284 359//284 358//284
f 159//285 362//285 363//285
f 363//285 160//285 159//285
f 362//286 364//286 365//286
f 365//286 363//286 362//286
f 364//287 366//287 367//287
f 367//287 365//287 364//287
f 366//288 368//288 369//288
f 369//288 367//288 366//288
f 368//289 370//289 371//289
f 371//289 369//289 368//289
f 370//290 372//290 308//290
f 308//290 371//290 370//290
f 372//291 313//291 373//291
f 373//291 374//291 372//291
f 371//292 308//292 307//292
f 307//292 375//292 371//292
f 369//293 371//293 375//293
f 375//293 376//293 369//293
f 367//294 369//294 376//294
f 376//294 377//294 367//294
f 365//295 367//295 377//295
f 377//295 378//295 365//295
f 363//296 365//296 378//296
f 378//296 379//296 363//296
f 160//297 363//297 379//297
f 379//297 97//297 160//297
f 341//298 339//298 343//298
f 343//298 342//298 341//298
f 339//299 337//299 346//299
f 346//299 343//299 339//299
f 337//300 335//300 348//300
f 348//300 346//300 337//300
f 335//301 333//301 350//301
f 350//301 348//301 335//301
f 333//302 331//302 352//302
f 352//302 350//302 333//302
f 331//303 329//303 354//303
f 354//303 352//303 331//303
f 329//304 327//304 356//304
f 356//304 354//304 329//304
f 327//305 325//305 358//305
f 358//305 356//305 327//305
f 325//306 324//306 360//306
f 360//306 358//306 325//306
f 308//307 372//307 374//307
f 374//307 309//307 308//307
f 313//308 312//308 380//308
f 380//308 373//308 313//308
f 359//309 361//309 381//309
f 381//309 382//309 359//309
f 357//310 359//310 382//310
f 382//310 383//310 357//310
f 355//311 357//311 383//311
f 383//311 384//311 355//311
f 353//312 355//312 384//312
f 384//312 385//312 353//312
f 351//313 353//313 385//313
f 385//313 386//313 351//313
f 349//314 351//314 386//314
f 386//314 387//314 349//314
f 347//315 349//315 387//315
f 387//315 388//315 347//315
f 344//316 347//316 388//316
f 388//316 389//316 344//316
f 345//317 344//317 389//317
f 389//317 390//317 345//317
f 133//318 136//318 362//318
f 362//318 159//318 133//318
f 136//319 320//319 364//319
f 364//319 362//319 136//319
f 320//320 318//320 366//320
f 366//320 364//320 320//320
f 318//321 316//321 368//321
f 368//321 366//321 318//321
f 316//322 314//322 370//322
f 370//322 368//322 316//322
f 314//323 313//323 372//323
f 372//323 370//323 314//323
f 380//324 391//324 392//324
f 392//324 393//324 380//324
f 317//325 394//325 395//325
f 395//325 315//325 317//325
f 123//326 396//326 89//326
f 89//326 16//326 123//326
f 376//327 397//327 398//327
f 398//327 377//327 376//327
f 334//328 399//328 400//328
f 401//328 332//328 334//328
f 334//328 400//328 401//328
f 342//329 402//329 403//329
f 403//329 341//329 342//329
f 386//330 404//330 405//330
f 405//330 387//330 386//330
f 326//331 406//331 407//331
f 407//331 322//331 326//331
f 408//332 409//332 394//332
f 394//332 410//332 408//332
f 312//333 411//333 391//333
f 391//333 380//333 312//333
f 382//334 412//334 413//334
f 413//334 383//334 382//334
f 377//335 398//335 414//335
f 414//335 378//335 377//335
f 336//336 415//336 399//336
f 399//336 334//336 336//336
f 387//337 405//337 416//337
f 416//337 388//337 387//337
f 310//338 417//338 418//338
f 418//338 307//338 310//338
f 328//339 419//339 406//339
f 406//339 326//339 328//339
f 420//340 122//340 124//340
f 124//340 173//340 420//340
f 421//341 422//341 409//341
f 409//341 408//341 421//341
f 383//342 413//342 423//342
f 423//342 384//342 383//342
f 345//343 424//343 402//343
f 402//343 342//343 345//343
f 378//344 414//344 425//344
f 425//344 379//344 378//344
f 338//345 426//345 415//345
f 415//345 336//345 338//345
f 311//346 427//346 411//346
f 411//346 312//346 311//346
f 341//347 403//347 428//347
f 428//347 340//347 341//347
f 388//348 416//348 429//348
f 429//348 389//348 388//348
f 307//349 418//349 430//349
f 430//349 375//349 307//349
f 431//350 432//350 419//350
f 419//350 328//350 330//350
f 136//351 135//351 422//351
f 422//351 321//351 136//351
f 390//352 433//352 424//352
f 424//352 345//352 390//352
f 384//353 423//353 434//353
f 434//353 385//353 384//353
f 379//354 425//354 98//354
f 98//354 97//354 379//354
f 340//355 428//355 426//355
f 426//355 338//355 340//355
f 315//356 395//356 427//356
f 427//356 311//356 315//356
f 134//357 420//357 173//357
f 173//357 135//357 134//357
f 389//358 429//358 433//358
f 433//358 390//358 389//358
f 375//359 430//359 397//359
f 397//359 376//359 375//359
f 401//360 400//360 432//360
f 432//360 431//360 401//360
f 322//361 407//361 435//361
f 435//361 323//361 322//361
f 385//362 434//362 404//362
f 404//362 386//362 385//362
f 434//363 148//363 147//363
f 147//363 404//363 434//363
f 407//364 150//364 149//364
f 149//364 435//364 407//364
f 400//365 152//365 151//365
f 151//365 432//365 400//365
f 430//366 154//366 153//366
f 153//366 397//366 430//366
f 429//367 156//367 155//367
f 155//367 433//367 429//367
f 396//368 144//368 57//368
f 57//368 89//368 396//368
f 395//369 162//369 161//369
f 161//369 427//369 395//369
f 426//370 436//370 437//370
f 423//372 170//372 148//372
f 148//372 434//372 423//372
f 433//373 155//373 171//373
f 171//373 424//373 433//373
f 135//374 173//374 172//374
f 172//374 422//374 135//374
f 432//375 151//375 174//375
f 174//375 419//375 432//375
f 418//376 175//376 154//376
f 154//376 430//376 418//376
f 416//377 176//377 156//377
f 156//377 429//377 416//377
f 145//378 441//378 77//378
f 77//378 58//378 145//378
f 403//379 181//379 180//379
f 180//379 428//379 403//379
f 427//380 161//380 182//380
f 182//380 411//380 427//380
f 426//381 164//381 184//381
f 184//381 442//381 415//381
f 415//381 426//381 184//381
f 414//382 186//382 185//382
f 439//382 425//382 414//382
f 414//382 185//382 439//382
f 424//383 171//383 187//383
f 187//383 402//383 424//383
f 413//384 188//384 170//384
f 170//384 423//384 413//384
f 422//385 172//385 189//385
f 189//385 409//385 422//385
f 158//386 443//386 133//386
f 133//386 159//386 158//386
f 419//387 174//387 192//387
f 192//387 406//387 419//387
f 417//388 193//388 175//388
f 175//388 418//388 417//388
f 405//389 194//389 176//389
f 176//389 416//389 405//389
f 398//391 197//391 186//391
f 186//391 414//391 398//391
f 412//392 198//392 188//392
f 188//392 413//392 412//392
f 411//393 182//393 199//393
f 199//393 391//393 411//393
f 409//394 189//394 200//394
f 200//394 394//394 409//394
f 406//395 192//395 150//395
f 150//395 407//395 406//395
f 404//396 147//396 194//396
f 194//396 405//396 404//396
f 402//397 187//397 181//397
f 181//397 403//397 402//397
f 444//398 201//398 152//398
f 152//398 400//398 399//398
f 399//398 444//398 152//398
f 397//399 153//399 197//399
f 197//399 398//399 397//399
f 96//400 157//400 160//400
f 160//400 97//400 96//400
f 394//401 200//401 162//401
f 162//401 395//401 394//401
f 391//402 199//402 202//402
f 202//402 392//402 391//402
f 445//403 410//403 446//403
f 446//403 447//403 445//403
f 448//404 449//404 421//404
f 421//404 450//404 448//404
f 451//405 319//405 321//405
f 321//405 449//405 451//405
f 410//406 394//406 317//406
f 317//406 446//406 410//406
f 446//407 317//407 319//407
f 319//407 451//407 446//407
f 449//408 321//408 422//408
f 422//408 421//408 449//408
f 452//409 453//409 445//409
f 445//409 454//409 452//409
f 455//410 456//410 448//410
f 448//410 457//410 455//410
f 447//411 446//411 451//411
f 451//411 456//411 447//411
f 450//412 421//412 408//412
f 408//412 453//412 450//412
f 456//413 451//413 449//413
f 449//413 448//413 456//413
f 453//414 408//414 410//414
f 410//414 445//414 453//414
f 458//415 459//415 455//415
f 455//415 460//415 458//415
f 461//416 454//416 459//416
f 459//416 458//416 461//416
f 457//417 448//417 450//417
f 450//417 462//417 457//417
f 454//418 445//418 447//418
f 447//418 459//418 454//418
f 459//419 447//419 456//419
f 456//419 455//419 459//419
f 462//420 450//420 453//420
f 453//420 452//420 462//420
f 463//421 464//421 461//421
f 461//421 465//421 463//421
f 466//422 460//422 467//422
f 467//422 468//422 466//422
f 469//423 462//423 452//423
f 452//423 464//423 469//423
f 460//424 455//424 457//424
f 457//424 467//424 460//424
f 464//425 452//425 454//425
f 454//425 461//425 464//425
f 467//426 457//426 462//426
f 462//426 469//426 467//426
f 470//427 471//427 463//427
f 463//427 472//427 470//427
f 473//428 474//428 466//428
f 466//428 475//428 473//428
f 468//429 467//429 469//429
f 469//429 471//429 468//429
f 465//430 461//430 458//430
f 458//430 474//430 465//430
f 474//431 458//431 460//431
f 460//431 466//431 474//431
f 471//432 469//432 464//432
f 464//432 463//432 471//432
f 476//433 477//433 470//433
f 470//433 478//433 476//433
f 479//434 472//434 480//434
f 480//434 481//434 479//434
f 475//435 466//435 468//435
f 468//435 477//435 475//435
f 472//436 463//436 465//436
f 465//436 480//436 472//436
f 477//437 468//437 471//437
f 471//437 470//437 477//437
f 480//438 465//438 474//438
f 474//438 473//438 480//438
f 482//439 479//439 481//439
f 481//439 483//439 482//439
f 476//440 478//440 479//440
f 479//440 482//440 476//440
f 481//441 480//441 473//441
f 473//441 483//441 481//441
f 483//442 473//442 475//442
f 475//442 482//442 483//442
f 478//443 470//443 472//443
f 472//443 479//443 478//443
f 482//444 475//444 477//444
f 477//444 476//444 482//444
f 484//445 243//445 198//445
f 198//445 412//445 484//445
f 435//446 149//446 245//446
f 245//446 485//446 435//446
f 323//447 435//447 485//447
f 485//447 486//447 323//447
f 487//448 412//448 382//448
f 382//448 488//448 487//448
f 361//449 489//449 393//449
f 393//449 381//449 361//449
f 324//450 490//450 491//450
f 491//450 360//450 324//450
f 360//451 491//451 489//451
f 489//451 361//451 360//451
f 323//452 486//452 490//452
f 490//452 324//452 323//452
f 486//453 310//453 309//453
f 309//453 490//453 486//453
f 491//454 374//454 373//454
f 373//454 489//454 491//454
f 490//455 309//455 374//455
f 374//455 491//455 490//455
f 489//456 373//456 380//456
f 380//456 393//456 489//456
f 486//457 485//457 417//457
f 417//457 310//457 486//457
f 485//458 245//458 193//458
f 193//458 417//458 485//458
f 392//459 202//459 243//459
f 243//459 484//459 392//459
f 492//460 392//460 484//460
f 484//460 493//460 492//460
f 494//461 492//461 493//461
f 493//461 495//461 494//461
f 496//462 497//462 498//462
f 498//462 499//462 496//462
f 498//463 393//463 392//463
f 392//463 492//463 498//463
f 497//464 381//464 393//464
f 393//464 498//464 497//464
f 493//465 484//465 412//465
f 412//465 487//465 493//465
f 488//466 382//466 381//466
f 381//466 497//466 488//466
f 500//467 501//467 496//467
f 496//467 502//467 500//467
f 503//468 499//468 494//468
f 494//468 504//468 503//468
f 495//469 493//469 487//469
f 487//469 505//469 495//469
f 499//470 498//470 492//470
f 492//470 494//470 499//470
f 501//471 488//471 497//471
f 497//471 496//471 501//471
f 505//472 487//472 488//472
f 488//472 501//472 505//472
f 506//473 504//473 507//473
f 507//473 508//473 506//473
f 509//474 502//474 503//474
f 503//474 510//474 509//474
f 511//475 505//475 501//475
f 501//475 500//475 511//475
f 502//476 496//476 499//476
f 499//476 503//476 502//476
f 504//477 494//477 495//477
f 495//477 507//477 504//477
f 507//478 495//478 505//478
f 505//478 511//478 507//478
f 512//479 513//479 514//479
f 514//479 515//479 512//479
f 515//480 514//480 509//480
f 509//480 516//480 515//480
f 508//481 507//481 511//481
f 511//481 513//481 508//481
f 510//482 503//482 504//482
f 504//482 506//482 510//482
f 514//483 500//483 502//483
f 502//483 509//483 514//483
f 513//484 511//484 500//484
f 500//484 514//484 513//484
f 516//485 517//485 512//485
f 512//485 515//485 516//485
f 518//486 519//486 517//486
f 517//486 516//486 518//486
f 516//487 509//487 510//487
f 510//487 518//487 516//487
f 519//488 506//488 508//488
f 508//488 517//488 519//488
f 517//489 508//489 513//489
f 513//489 512//489 517//489
f 518//490 510//490 506//490
f 506//490 519//490 518//490
f 425//492 439//492 191//492
f 191//492 98//492 425//492
f 527//504 297//504 292//504
f 292//504 526//504 527//504
f 528//507 529//507 530//507
f 530//507 531//507 528//507
f 531//508 532//508 533//508
f 533//508 528//508 531//508
f 530//509 534//509 532//509
f 532//509 531//509 530//509
f 529//510 535//510 534//510
f 534//510 530//510 529//510
f 528//511 533//511 535//511
f 535//511 529//511 528//511
f 533//512 332//512 401//512
f 401//512 535//512 533//512
f 535//513 401//513 431//513
f 431//513 534//513 535//513
f 534//514 431//514 330//514
f 330//514 532//514 534//514
f 532//515 330//515 332//515
f 332//515 533//515 532//515
f 426//516 180//516 164//516
f 428//517 180//517 426//517
f 536//518 428//518 426//518
f 426//518 437//518 536//518
f 399//519 415//519 442//519
f 442//519 444//519 399//519
f 117//520 103//520 195//520
f 195//520 183//520 117//520
f 177//523 537//523 538//523
f 539//524 540//524 396//524
f 396//524 123//524 539//524
f 190//525 178//525 538//525
f 420//526 539//526 123//526
f 123//526 122//526 420//526
f 541//527 542//527 145//527
f 145//527 144//527 541//527
f 540//528 541//528 144//528
f 144//528 396//528 540//528
f 96//529 95//529 538//529
f 542//530 538//530 441//530
f 441//530 145//530 542//530
f 95//531 190//531 538//531
f 443//532 420//532 134//532
f 134//532 133//532 443//532
f 543//533 544//533 158//533
f 158//533 157//533 543//533
f 178//534 177//534 538//534
f 544//535 545//535 443//535
f 443//535 158//535 544//535
f 441//536 537//536 143//536
f 143//536 77//536 441//536
f 537//537 177//537 169//537
f 169//537 143//537 537//537
f 540//538 539//538 420//538
f 420//538 546//538 540//538
f 541//539 540//539 546//539
f 546//539 547//539 541//539
f 548//540 538//540 542//540
f 542//541 541//541 547//541
f 547//541 548//541 542//541
f 545//542 546//542 420//542
f 420//542 443//542 545//542
f 544//543 547//543 546//543
f 546//543 545//543 544//543
f 548//544 543//544 538//544
f 543//545 548//545 547//545
f 547//545 544//545 543//545
f 537//546 441//546 538//546
f 538//547 543//547 157//547
f 157//547 96//547 538//547
usemtl mat1
f 183//131 195//131 196//131
f 196//131 184//131 183//131
f 282//235 166//235 169//235
f 169//235 179//235 282//235
f 442//390 184//390 196//390
f 196//390 444//390 442//390
f 282//494 179//494 191//494
f 191//494 438//494 282//494
f 201//521 444//521 196//521
f 195//522 201//522 196//522
usemtl mat2
f 166//112 167//112 168//112
f 168//112 169//112 166//112
f 280//232 281//232 166//232
f 166//232 282//232 280//232
f 167//234 283//234 185//234
f 185//234 168//234 167//234
f 284//236 285//236 286//236
f 286//236 287//236 284//236
f 287//237 286//237 283//237
f 283//237 167//237 287//237
f 281//238 287//238 167//238
f 167//238 166//238 281//238
f 288//239 289//239 285//239
f 285//239 284//239 288//239
f 290//240 284//240 287//240
f 287//240 281//240 290//240
f 291//241 290//241 281//241
f 281//241 280//241 291//241
f 292//242 293//242 294//242
f 294//242 295//242 292//242
f 294//243 288//243 284//243
f 284//243 290//243 294//243
f 295//244 294//244 290//244
f 290//244 291//244 295//244
f 296//246 297//246 289//246
f 289//246 288//246 296//246
f 293//247 296//247 288//247
f 288//247 294//247 293//247
f 438//371 191//371 439//371
f 439//371 440//371 438//371
f 280//491 282//491 438//491
f 438//491 520//491 280//491
f 440//493 439//493 185//493
f 185//493 283//493 440//493
f 521//495 522//495 286//495
f 286//495 285//495 521//495
f 522//496 440//496 283//496
f 283//496 286//496 522//496
f 520//497 438//497 440//497
f 440//497 522//497 520//497
f 523//498 521//498 285//498
f 285//498 289//498 523//498
f 524//499 520//499 522//499
f 522//499 521//499 524//499
f 291//500 280//500 520//500
f 520//500 524//500 291//500
f 292//501 295//501 525//501
f 525//501 526//501 292//501
f 525//502 524//502 521//502
f 521//502 523//502 525//502
f 295//503 291//503 524//503
f 524//503 525//503 295//503
f 527//505 523//505 289//505
f 289//505 297//505 527//505
f 526//506 525//506 523//506
f 523//506 527//506 526//506
# Vertices: 548, normals: 547, texture coordinates: 0, faces: 1086

